# xmcd CD database file
#
# Track frame offsets:
#	150
#	10330
#	20957
#	31963
#	44470
#	58308
#	68691
#	78023
#	88053
#	102768
#	116913
#	129198
#	140516
#	158529
#	169986
#	183709
#	192094
#	207789
#	217862
#	228592
#
# Disc length: 3079 seconds
#
# Revision: 0
# Processed by: cddbd v1.4PL0 Copyright (c) Steve Scherf et al.
# Submitted via: CDex 1.50
#
DISCID=140c0514
DTITLE=Zydeco Blues - Zydeco Blues
DYEAR=1991
DGENRE=Blues
TTITLE0=Fernest and The Thunders - Little Woman
TTITLE1=Bobby Price With Marcel Dugas and The Entertainers - Goin' Home
TTITLE2=Bobby Price With Marcel Dugas and The Entertainers - Teardrops On My Pillow
TTITLE3=Marcel Dugas and The Entertainers (Gene Morris V) - You Don't Have To Go
TTITLE4=Fernest and The Thunders (Bobby Price V) - Hey La Bas
TTITLE5=Marcel Dugas and The Entertainers (Gene Morris V) - You Got Me Runnin'
TTITLE6=Marcel Dugas and The Entertainers (Gene Morris V) - Bald-Headed Woman
TTITLE7=Fernest and The Thunders (Gene Morris V) - Lonely Lonely Night
TTITLE8=Fernest and The Thunders (Jerry Morris V) - Lost Lover Blues
TTITLE9=Fernest and The Thunders (Bobby Price V) - Nobody Wants To Dance With Me
TTITLE10=Fernest and The Thunders (Gene Morris V) - Irene
TTITLE11=Marcel Dugas and The Entertainers (Gene Morris V) - Going Back To Big Mamou
TTITLE12=Bobby Price With Fernest and The Thunders - Mean Mean Woman
TTITLE13=Bobby Price With Fernest and The Thunders - Send Me Some Lovin'
TTITLE14=Gene Morris With Marcel and The Entertainers - La La
TTITLE15=Gene Morris With Marcel and The Entertainers - My Girl Josephine
TTITLE16=Gene Morris With Marcel and The Entertainers - Pork Chops Potatoes and Cheese
TTITLE17=Fernest and The Thunders (Fernest Arceneaux V) - Mother's Love
TTITLE18=Gene Morris With Marcel and The Entertainers - My Baby Go Me Busted
TTITLE19=Bobby Price With Marcel Dugas and The Entertainers - Jambalaya
EXTD=YEAR: 1991
EXTT0=
EXTT1=
EXTT2=
EXTT3=
EXTT4=
EXTT5=
EXTT6=
EXTT7=
EXTT8=
EXTT9=
EXTT10=
EXTT11=
EXTT12=
EXTT13=
EXTT14=
EXTT15=
EXTT16=
EXTT17=
EXTT18=
EXTT19=
PLAYORDER=
